<svg xmlns="http://www.w3.org/2000/svg" width="375" viewBox="0 0 375 375" height="375" version="1.0"><defs><clipPath id="a"><path d="M 103 82.816406 L 252.742188 82.816406 L 252.742188 231.316406 L 103 231.316406 Z M 103 82.816406"/></clipPath></defs><path fill="#FFF" d="M-37.5 -37.5H412.5V412.5H-37.5z"/><path fill="#FFF" d="M-37.5 -37.5H412.5V412.5H-37.5z"/><path fill="#DEED49" d="M-37.5 -37.5H412.5V412.5H-37.5z"/><g clip-path="url(#a)"><path fill="#00530E" d="M 234.195312 181.734375 L 234.195312 138.417969 L 252.394531 138.417969 L 191.605469 82.832031 L 191.605469 183.371094 C 195.476562 183.6875 199.1875 184.089844 202.648438 184.460938 C 212.179688 185.515625 224.558594 185.621094 234.214844 181.734375 Z M 204.304688 214.046875 C 191.183594 224.1875 170.628906 224.011719 153.414062 217.605469 C 130.007812 208.875 116.117188 192.980469 103.085938 167.5625 C 105.691406 191.21875 120.019531 213.046875 143.003906 224.167969 C 178.523438 241.363281 221.238281 226.492188 238.417969 190.9375 C 239.945312 187.789062 241.28125 184.441406 242.425781 180.730469 C 231.734375 188.667969 214.957031 188.949219 202.296875 187.558594 C 182.269531 185.359375 151.390625 181.980469 138.414062 201.585938 C 145.0625 206.515625 146.238281 208.167969 154.839844 212.078125 C 166.953125 217.585938 192.046875 220.683594 204.304688 214.046875 Z M 204.304688 214.046875" fill-rule="evenodd"/></g><path fill="#271D09" d="M 185.609375 182.945312 L 185.609375 101.578125 L 162.082031 123.085938 L 162.082031 112.3125 L 146.328125 112.3125 L 146.328125 137.5 L 124.804688 157.179688 L 143.003906 157.179688 L 143.003906 192.101562 C 154.257812 183.335938 170.523438 182.15625 185.609375 182.945312 Z M 181.054688 169.570312 L 168.519531 169.570312 L 168.519531 157.019531 L 181.054688 157.019531 Z M 181.054688 153.589844 L 168.519531 153.589844 L 168.519531 141.039062 L 181.054688 141.039062 Z M 181.054688 153.589844" fill-rule="evenodd"/><g fill="#00530E"><g><g><path d="M 3.628906 0.0390625 L 8.695312 0.0390625 L 8.695312 -12.046875 L 12.085938 -12.046875 L 19.027344 0.0390625 L 24.828125 0.0390625 L 16.992188 -12.542969 C 20.183594 -13.640625 22.496094 -16.332031 22.496094 -19.882812 C 22.496094 -25.167969 18.007812 -28.179688 12.742188 -28.179688 L 3.628906 -28.179688 Z M 8.734375 -16.171875 L 8.734375 -23.652344 L 12.785156 -23.652344 C 15.675781 -23.652344 17.488281 -22.136719 17.488281 -19.804688 C 17.488281 -17.6875 15.894531 -16.292969 13.203125 -16.171875 Z M 8.734375 -16.171875" transform="translate(113.15 273.98)"/></g></g></g><g fill="#00530E"><g><g><path d="M 13.761719 0.398438 C 21.320312 0.398438 24.550781 -4.089844 24.550781 -11.1875 L 24.550781 -28.179688 L 19.484375 -28.179688 L 19.484375 -11.566406 C 19.484375 -7.019531 18.308594 -4.488281 13.761719 -4.488281 C 9.234375 -4.488281 8.035156 -7.019531 8.035156 -11.566406 L 8.035156 -28.179688 L 2.992188 -28.179688 L 2.992188 -10.988281 C 2.992188 -4.089844 6.203125 0.398438 13.761719 0.398438 Z M 13.761719 0.398438" transform="translate(138.428 273.98)"/></g></g></g><g fill="#00530E"><g><g><path d="M 3.628906 0.0390625 L 8.695312 0.0390625 L 8.695312 -12.046875 L 12.085938 -12.046875 L 19.027344 0.0390625 L 24.828125 0.0390625 L 16.992188 -12.542969 C 20.183594 -13.640625 22.496094 -16.332031 22.496094 -19.882812 C 22.496094 -25.167969 18.007812 -28.179688 12.742188 -28.179688 L 3.628906 -28.179688 Z M 8.734375 -16.171875 L 8.734375 -23.652344 L 12.785156 -23.652344 C 15.675781 -23.652344 17.488281 -22.136719 17.488281 -19.804688 C 17.488281 -17.6875 15.894531 -16.292969 13.203125 -16.171875 Z M 8.734375 -16.171875" transform="translate(165.94 273.98)"/></g></g></g><g fill="#00530E"><g><g><path d="M 0.238281 0 L 5.761719 0 L 7.957031 -6.121094 L 18.90625 -6.121094 L 21.078125 0 L 26.542969 0 L 15.316406 -28.179688 L 11.527344 -28.179688 Z M 9.671875 -10.449219 L 13.441406 -20.742188 L 17.191406 -10.449219 Z M 9.671875 -10.449219" transform="translate(191.217 273.98)"/></g></g></g><g fill="#00530E"><g><g><path d="M 3.628906 0 L 20.742188 0 L 20.742188 -4.785156 L 8.695312 -4.785156 L 8.695312 -28.179688 L 3.628906 -28.179688 Z M 3.628906 0" transform="translate(217.99 273.98)"/></g></g></g><g fill="#00530E"><g><g><path d="M 11.6875 0.320312 C 17.070312 0.320312 21.476562 -2.890625 21.476562 -8.214844 C 21.476562 -17.570312 7.835938 -15.773438 7.835938 -21.078125 C 7.835938 -22.875 9.394531 -24.089844 11.386719 -24.089844 C 13.28125 -24.089844 14.957031 -22.992188 15.933594 -21.078125 L 20.140625 -23.652344 C 18.207031 -27.082031 15.035156 -28.597656 11.566406 -28.597656 C 6.820312 -28.597656 2.773438 -25.804688 2.773438 -20.820312 C 2.773438 -11.648438 16.414062 -13.601562 16.414062 -7.757812 C 16.414062 -5.761719 14.777344 -4.167969 11.765625 -4.167969 C 8.773438 -4.167969 6.28125 -5.722656 5.921875 -9.234375 L 0.898438 -7.957031 C 1.792969 -2.414062 6.699219 0.320312 11.6875 0.320312 Z M 11.6875 0.320312" transform="translate(239.182 273.98)"/></g></g></g><g fill="#271D09"><g><g><path d="M 5.09375 0 L 6.769531 0 L 11.734375 -12.457031 L 9.28125 -12.457031 L 5.941406 -3.632812 L 2.582031 -12.457031 L 0.105469 -12.457031 Z M 5.09375 0" transform="translate(26.548 332.158)"/></g></g></g><g fill="#271D09"><g><g><path d="M 1.605469 0 L 3.84375 0 L 3.84375 -12.457031 L 1.605469 -12.457031 Z M 1.605469 0" transform="translate(42.028 332.158)"/></g></g></g><g fill="#271D09"><g><g><path d="M 5.09375 0 L 6.769531 0 L 11.734375 -12.457031 L 9.28125 -12.457031 L 5.941406 -3.632812 L 2.582031 -12.457031 L 0.105469 -12.457031 Z M 5.09375 0" transform="translate(51.121 332.158)"/></g></g></g><g fill="#271D09"><g><g><path d="M 1.605469 0 L 9.890625 0 L 9.890625 -2.117188 L 3.84375 -2.117188 L 3.84375 -5.199219 L 9.476562 -5.199219 L 9.476562 -7.253906 L 3.84375 -7.253906 L 3.84375 -10.402344 L 9.890625 -10.402344 L 9.890625 -12.457031 L 1.605469 -12.457031 Z M 1.605469 0" transform="translate(66.602 332.158)"/></g></g></g><g fill="#271D09"><g><g><path d="M 1.605469 0 L 9.890625 0 L 9.890625 -2.117188 L 3.84375 -2.117188 L 3.84375 -5.199219 L 9.476562 -5.199219 L 9.476562 -7.253906 L 3.84375 -7.253906 L 3.84375 -10.402344 L 9.890625 -10.402344 L 9.890625 -12.457031 L 1.605469 -12.457031 Z M 1.605469 0" transform="translate(89.201 332.158)"/></g></g></g><g fill="#271D09"><g><g><path d="M 0.21875 0 L 2.890625 0 L 5.90625 -4.734375 L 8.957031 0 L 11.628906 0 L 7.457031 -6.230469 L 11.609375 -12.457031 L 8.9375 -12.457031 L 5.921875 -7.652344 L 2.910156 -12.457031 L 0.238281 -12.457031 L 4.390625 -6.230469 Z M 0.21875 0" transform="translate(103.818 332.158)"/></g></g></g><g fill="#271D09"><g><g><path d="M 1.605469 0 L 3.824219 0 L 3.824219 -5.164062 L 5.507812 -5.164062 C 8.046875 -5.164062 9.90625 -6.445312 9.90625 -8.769531 C 9.90625 -11.125 8.046875 -12.457031 5.507812 -12.457031 L 1.605469 -12.457031 Z M 3.824219 -7.253906 L 3.824219 -10.367188 L 5.507812 -10.367188 C 7.027344 -10.367188 7.6875 -9.785156 7.6875 -8.769531 C 7.6875 -7.785156 7.042969 -7.253906 5.507812 -7.253906 Z M 3.824219 -7.253906" transform="translate(119.299 332.158)"/></g></g></g><g fill="#271D09"><g><g><path d="M 1.605469 0 L 9.890625 0 L 9.890625 -2.117188 L 3.84375 -2.117188 L 3.84375 -5.199219 L 9.476562 -5.199219 L 9.476562 -7.253906 L 3.84375 -7.253906 L 3.84375 -10.402344 L 9.890625 -10.402344 L 9.890625 -12.457031 L 1.605469 -12.457031 Z M 1.605469 0" transform="translate(133.229 332.158)"/></g></g></g><g fill="#271D09"><g><g><path d="M 1.605469 0.0195312 L 3.84375 0.0195312 L 3.84375 -5.324219 L 5.34375 -5.324219 L 8.410156 0.0195312 L 10.976562 0.0195312 L 7.511719 -5.542969 C 8.921875 -6.03125 9.945312 -7.21875 9.945312 -8.789062 C 9.945312 -11.125 7.960938 -12.457031 5.632812 -12.457031 L 1.605469 -12.457031 Z M 3.859375 -7.148438 L 3.859375 -10.453125 L 5.652344 -10.453125 C 6.929688 -10.453125 7.730469 -9.785156 7.730469 -8.753906 C 7.730469 -7.820312 7.027344 -7.203125 5.835938 -7.148438 Z M 3.859375 -7.148438" transform="translate(147.846 332.158)"/></g></g></g><g fill="#271D09"><g><g><path d="M 1.605469 0 L 3.84375 0 L 3.84375 -12.457031 L 1.605469 -12.457031 Z M 1.605469 0" transform="translate(162.665 332.158)"/></g></g></g><g fill="#271D09"><g><g><path d="M 1.605469 0 L 9.890625 0 L 9.890625 -2.117188 L 3.84375 -2.117188 L 3.84375 -5.199219 L 9.476562 -5.199219 L 9.476562 -7.253906 L 3.84375 -7.253906 L 3.84375 -10.402344 L 9.890625 -10.402344 L 9.890625 -12.457031 L 1.605469 -12.457031 Z M 1.605469 0" transform="translate(171.758 332.158)"/></g></g></g><g fill="#271D09"><g><g><path d="M 1.605469 0 L 3.753906 0 L 3.753906 -8.734375 L 8.972656 0 L 11.210938 0 L 11.210938 -12.457031 L 9.0625 -12.457031 L 9.0625 -3.738281 L 3.824219 -12.457031 L 1.605469 -12.457031 Z M 1.605469 0" transform="translate(186.375 332.158)"/></g></g></g><g fill="#271D09"><g><g><path d="M 6.753906 0.175781 C 9.230469 0.175781 11.210938 -1.085938 12.199219 -3.410156 L 10.128906 -4.257812 C 9.457031 -2.582031 8.355469 -1.949219 6.753906 -1.949219 C 4.082031 -1.949219 2.945312 -3.84375 2.945312 -6.320312 C 2.945312 -8.628906 4.082031 -10.523438 6.71875 -10.523438 C 8.339844 -10.523438 9.625 -9.890625 10.09375 -8.25 L 12.183594 -9.078125 C 11.175781 -11.40625 9.203125 -12.660156 6.734375 -12.660156 C 2.636719 -12.660156 0.722656 -9.644531 0.722656 -6.230469 C 0.722656 -2.8125 2.652344 0.175781 6.753906 0.175781 Z M 6.753906 0.175781" transform="translate(202.833 332.158)"/></g></g></g><g fill="#271D09"><g><g><path d="M 1.605469 0 L 3.84375 0 L 3.84375 -12.457031 L 1.605469 -12.457031 Z M 1.605469 0" transform="translate(219.098 332.158)"/></g></g></g><g fill="#271D09"><g><g><path d="M 0.105469 0 L 2.546875 0 L 3.515625 -2.707031 L 8.355469 -2.707031 L 9.316406 0 L 11.734375 0 L 6.769531 -12.457031 L 5.09375 -12.457031 Z M 4.273438 -4.617188 L 5.941406 -9.167969 L 7.597656 -4.617188 Z M 4.273438 -4.617188" transform="translate(228.19 332.158)"/></g></g></g><g fill="#271D09"><g><g><path d="M 5.164062 0.140625 C 7.546875 0.140625 9.492188 -1.277344 9.492188 -3.632812 C 9.492188 -7.765625 3.464844 -6.972656 3.464844 -9.316406 C 3.464844 -10.109375 4.152344 -10.648438 5.035156 -10.648438 C 5.871094 -10.648438 6.609375 -10.164062 7.042969 -9.316406 L 8.902344 -10.453125 C 8.046875 -11.972656 6.648438 -12.640625 5.113281 -12.640625 C 3.015625 -12.640625 1.226562 -11.40625 1.226562 -9.203125 C 1.226562 -5.148438 7.253906 -6.011719 7.253906 -3.429688 C 7.253906 -2.546875 6.53125 -1.84375 5.199219 -1.84375 C 3.878906 -1.84375 2.777344 -2.53125 2.617188 -4.082031 L 0.398438 -3.515625 C 0.792969 -1.066406 2.960938 0.140625 5.164062 0.140625 Z M 5.164062 0.140625" transform="translate(243.671 332.158)"/></g></g></g><g fill="#271D09"><g><g><path d="M 5 -13.539062 L 6.566406 -13.539062 L 9.273438 -16.085938 L 6.980469 -16.085938 Z M 6.082031 0.175781 C 9.421875 0.175781 10.851562 -1.808594 10.851562 -4.945312 L 10.851562 -12.457031 L 8.613281 -12.457031 L 8.613281 -5.113281 C 8.613281 -3.101562 8.09375 -1.984375 6.082031 -1.984375 C 4.082031 -1.984375 3.550781 -3.101562 3.550781 -5.113281 L 3.550781 -12.457031 L 1.320312 -12.457031 L 1.320312 -4.855469 C 1.320312 -1.808594 2.742188 0.175781 6.082031 0.175781 Z M 6.082031 0.175781" transform="translate(265.32 332.158)"/></g></g></g><g fill="#271D09"><g><g><path d="M 1.605469 0 L 3.753906 0 L 3.753906 -8.734375 L 8.972656 0 L 11.210938 0 L 11.210938 -12.457031 L 9.0625 -12.457031 L 9.0625 -3.738281 L 3.824219 -12.457031 L 1.605469 -12.457031 Z M 1.605469 0" transform="translate(281.126 332.158)"/></g></g></g><g fill="#271D09"><g><g><path d="M 1.605469 0 L 3.84375 0 L 3.84375 -12.457031 L 1.605469 -12.457031 Z M 1.605469 0" transform="translate(297.584 332.158)"/></g></g></g><g fill="#271D09"><g><g><path d="M 6.753906 0.175781 C 9.230469 0.175781 11.210938 -1.085938 12.199219 -3.410156 L 10.128906 -4.257812 C 9.457031 -2.582031 8.355469 -1.949219 6.753906 -1.949219 C 4.082031 -1.949219 2.945312 -3.84375 2.945312 -6.320312 C 2.945312 -8.628906 4.082031 -10.523438 6.71875 -10.523438 C 8.339844 -10.523438 9.625 -9.890625 10.09375 -8.25 L 12.183594 -9.078125 C 11.175781 -11.40625 9.203125 -12.660156 6.734375 -12.660156 C 2.636719 -12.660156 0.722656 -9.644531 0.722656 -6.230469 C 0.722656 -2.8125 2.652344 0.175781 6.753906 0.175781 Z M 6.753906 0.175781" transform="translate(306.677 332.158)"/></g></g></g><g fill="#271D09"><g><g><path d="M 0.105469 0 L 2.546875 0 L 3.515625 -2.707031 L 8.355469 -2.707031 L 9.316406 0 L 11.734375 0 L 6.769531 -12.457031 L 5.09375 -12.457031 Z M 4.273438 -4.617188 L 5.941406 -9.167969 L 7.597656 -4.617188 Z M 4.273438 -4.617188" transform="translate(322.942 332.158)"/></g></g></g><g fill="#271D09"><g><g><path d="M 5.164062 0.140625 C 7.546875 0.140625 9.492188 -1.277344 9.492188 -3.632812 C 9.492188 -7.765625 3.464844 -6.972656 3.464844 -9.316406 C 3.464844 -10.109375 4.152344 -10.648438 5.035156 -10.648438 C 5.871094 -10.648438 6.609375 -10.164062 7.042969 -9.316406 L 8.902344 -10.453125 C 8.046875 -11.972656 6.648438 -12.640625 5.113281 -12.640625 C 3.015625 -12.640625 1.226562 -11.40625 1.226562 -9.203125 C 1.226562 -5.148438 7.253906 -6.011719 7.253906 -3.429688 C 7.253906 -2.546875 6.53125 -1.84375 5.199219 -1.84375 C 3.878906 -1.84375 2.777344 -2.53125 2.617188 -4.082031 L 0.398438 -3.515625 C 0.792969 -1.066406 2.960938 0.140625 5.164062 0.140625 Z M 5.164062 0.140625" transform="translate(338.422 332.158)"/></g></g></g></svg>