<svg xmlns="http://www.w3.org/2000/svg" width="375" viewBox="0 0 375 375" height="375" version="1.0"><path fill="#FFF" d="M-37.5 -37.5H412.5V412.5H-37.5z"/><path fill="#FFF" d="M-37.5 -37.5H412.5V412.5H-37.5z"/><path fill="#0D0832" d="M-37.5 -37.5H412.5V412.5H-37.5z"/><g fill="#7ED957"><g><g><path d="M 20.671875 -8.234375 C 20.671875 -6.554688 20.242188 -5.0625 19.390625 -3.75 C 18.535156 -2.445312 17.300781 -1.429688 15.6875 -0.703125 C 14.082031 0.015625 12.195312 0.375 10.03125 0.375 C 8.226562 0.375 6.710938 0.25 5.484375 0 C 4.265625 -0.257812 2.992188 -0.707031 1.671875 -1.34375 L 1.671875 -7.875 C 3.066406 -7.15625 4.519531 -6.59375 6.03125 -6.1875 C 7.539062 -5.78125 8.925781 -5.578125 10.1875 -5.578125 C 11.269531 -5.578125 12.066406 -5.765625 12.578125 -6.140625 C 13.085938 -6.523438 13.34375 -7.015625 13.34375 -7.609375 C 13.34375 -7.984375 13.238281 -8.304688 13.03125 -8.578125 C 12.832031 -8.859375 12.503906 -9.140625 12.046875 -9.421875 C 11.597656 -9.710938 10.394531 -10.296875 8.4375 -11.171875 C 6.675781 -11.972656 5.351562 -12.75 4.46875 -13.5 C 3.582031 -14.257812 2.925781 -15.128906 2.5 -16.109375 C 2.070312 -17.085938 1.859375 -18.242188 1.859375 -19.578125 C 1.859375 -22.078125 2.765625 -24.023438 4.578125 -25.421875 C 6.398438 -26.816406 8.898438 -27.515625 12.078125 -27.515625 C 14.890625 -27.515625 17.753906 -26.863281 20.671875 -25.5625 L 18.421875 -19.90625 C 15.890625 -21.070312 13.703125 -21.65625 11.859375 -21.65625 C 10.898438 -21.65625 10.203125 -21.488281 9.765625 -21.15625 C 9.335938 -20.820312 9.125 -20.40625 9.125 -19.90625 C 9.125 -19.375 9.398438 -18.894531 9.953125 -18.46875 C 10.503906 -18.050781 12 -17.289062 14.4375 -16.1875 C 16.769531 -15.132812 18.390625 -14.003906 19.296875 -12.796875 C 20.210938 -11.585938 20.671875 -10.066406 20.671875 -8.234375 Z M 20.671875 -8.234375" transform="translate(97.059 201.75)"/></g></g></g><g fill="#7ED957"><g><g><path d="M 12.078125 0.375 C 8.640625 0.375 6.03125 -0.550781 4.25 -2.40625 C 2.476562 -4.269531 1.59375 -6.9375 1.59375 -10.40625 C 1.59375 -13.894531 2.550781 -16.597656 4.46875 -18.515625 C 6.382812 -20.429688 9.113281 -21.390625 12.65625 -21.390625 C 15.09375 -21.390625 17.382812 -20.859375 19.53125 -19.796875 L 17.40625 -14.4375 C 16.53125 -14.820312 15.71875 -15.128906 14.96875 -15.359375 C 14.226562 -15.585938 13.457031 -15.703125 12.65625 -15.703125 C 11.476562 -15.703125 10.566406 -15.242188 9.921875 -14.328125 C 9.285156 -13.410156 8.96875 -12.117188 8.96875 -10.453125 C 8.96875 -7.085938 10.207031 -5.40625 12.6875 -5.40625 C 14.820312 -5.40625 16.863281 -6.019531 18.8125 -7.25 L 18.8125 -1.484375 C 16.945312 -0.242188 14.703125 0.375 12.078125 0.375 Z M 12.078125 0.375" transform="translate(118.986 201.75)"/></g></g></g><g fill="#7ED957"><g><g><path d="M 15.203125 -21.390625 C 15.828125 -21.390625 16.425781 -21.34375 17 -21.25 L 17.40625 -21.171875 L 16.75 -14.328125 C 16.15625 -14.472656 15.332031 -14.546875 14.28125 -14.546875 C 12.695312 -14.546875 11.546875 -14.179688 10.828125 -13.453125 C 10.117188 -12.734375 9.765625 -11.691406 9.765625 -10.328125 L 9.765625 0 L 2.5 0 L 2.5 -21.015625 L 7.90625 -21.015625 L 9.03125 -17.671875 L 9.390625 -17.671875 C 9.992188 -18.773438 10.835938 -19.671875 11.921875 -20.359375 C 13.003906 -21.046875 14.097656 -21.390625 15.203125 -21.390625 Z M 15.203125 -21.390625" transform="translate(139.466 201.75)"/></g></g></g><g fill="#7ED957"><g><g><path d="M 16.21875 0 L 14.828125 -2.78125 L 14.671875 -2.78125 C 13.703125 -1.570312 12.707031 -0.742188 11.6875 -0.296875 C 10.675781 0.148438 9.363281 0.375 7.75 0.375 C 5.769531 0.375 4.210938 -0.21875 3.078125 -1.40625 C 1.941406 -2.59375 1.375 -4.265625 1.375 -6.421875 C 1.375 -8.660156 2.148438 -10.328125 3.703125 -11.421875 C 5.265625 -12.515625 7.523438 -13.128906 10.484375 -13.265625 L 13.984375 -13.375 L 13.984375 -13.671875 C 13.984375 -15.398438 13.132812 -16.265625 11.4375 -16.265625 C 9.894531 -16.265625 7.941406 -15.75 5.578125 -14.71875 L 3.484375 -19.5 C 5.929688 -20.757812 9.023438 -21.390625 12.765625 -21.390625 C 15.460938 -21.390625 17.550781 -20.722656 19.03125 -19.390625 C 20.507812 -18.054688 21.25 -16.1875 21.25 -13.78125 L 21.25 0 Z M 10.84375 -4.75 C 11.71875 -4.75 12.46875 -5.023438 13.09375 -5.578125 C 13.71875 -6.140625 14.03125 -6.863281 14.03125 -7.75 L 14.03125 -9.390625 L 12.359375 -9.3125 C 9.972656 -9.226562 8.78125 -8.351562 8.78125 -6.6875 C 8.78125 -5.394531 9.46875 -4.75 10.84375 -4.75 Z M 10.84375 -4.75" transform="translate(157.294 201.75)"/></g></g></g><g fill="#7ED957"><g><g><path d="M 15.125 0.375 C 14.0625 0.375 13.109375 0.195312 12.265625 -0.15625 C 11.421875 -0.507812 10.585938 -1.144531 9.765625 -2.0625 L 9.421875 -2.0625 C 9.648438 -0.582031 9.765625 0.332031 9.765625 0.6875 L 9.765625 9.125 L 2.5 9.125 L 2.5 -21.015625 L 8.40625 -21.015625 L 9.421875 -18.34375 L 9.765625 -18.34375 C 11.109375 -20.375 12.96875 -21.390625 15.34375 -21.390625 C 17.664062 -21.390625 19.488281 -20.425781 20.8125 -18.5 C 22.132812 -16.570312 22.796875 -13.925781 22.796875 -10.5625 C 22.796875 -7.164062 22.109375 -4.492188 20.734375 -2.546875 C 19.359375 -0.597656 17.488281 0.375 15.125 0.375 Z M 12.6875 -15.703125 C 11.625 -15.703125 10.878906 -15.320312 10.453125 -14.5625 C 10.023438 -13.800781 9.796875 -12.671875 9.765625 -11.171875 L 9.765625 -10.59375 C 9.765625 -8.789062 10.003906 -7.484375 10.484375 -6.671875 C 10.960938 -5.867188 11.722656 -5.46875 12.765625 -5.46875 C 13.691406 -5.46875 14.363281 -5.867188 14.78125 -6.671875 C 15.207031 -7.472656 15.421875 -8.789062 15.421875 -10.625 C 15.421875 -12.4375 15.207031 -13.734375 14.78125 -14.515625 C 14.363281 -15.304688 13.664062 -15.703125 12.6875 -15.703125 Z M 12.6875 -15.703125" transform="translate(180.965 201.75)"/></g></g></g><g fill="#7ED957"><g><g><path d="M 12.65625 0.375 C 9.15625 0.375 6.4375 -0.554688 4.5 -2.421875 C 2.5625 -4.285156 1.59375 -6.9375 1.59375 -10.375 C 1.59375 -13.925781 2.488281 -16.648438 4.28125 -18.546875 C 6.082031 -20.441406 8.644531 -21.390625 11.96875 -21.390625 C 15.132812 -21.390625 17.578125 -20.5625 19.296875 -18.90625 C 21.023438 -17.257812 21.890625 -14.882812 21.890625 -11.78125 L 21.890625 -8.546875 L 8.921875 -8.546875 C 8.972656 -7.378906 9.40625 -6.457031 10.21875 -5.78125 C 11.03125 -5.113281 12.132812 -4.78125 13.53125 -4.78125 C 14.800781 -4.78125 15.96875 -4.898438 17.03125 -5.140625 C 18.101562 -5.390625 19.265625 -5.804688 20.515625 -6.390625 L 20.515625 -1.171875 C 19.378906 -0.585938 18.203125 -0.1875 16.984375 0.03125 C 15.773438 0.257812 14.332031 0.375 12.65625 0.375 Z M 12.234375 -16.453125 C 11.378906 -16.453125 10.660156 -16.179688 10.078125 -15.640625 C 9.503906 -15.109375 9.171875 -14.269531 9.078125 -13.125 L 15.3125 -13.125 C 15.28125 -14.132812 14.988281 -14.941406 14.4375 -15.546875 C 13.894531 -16.148438 13.160156 -16.453125 12.234375 -16.453125 Z M 12.234375 -16.453125" transform="translate(205.396 201.75)"/></g></g></g><g fill="#7ED957"><g><g><path d="M 0.796875 8.515625 C -0.535156 8.515625 -1.800781 8.382812 -3 8.125 L -3 2.4375 C -2.601562 2.507812 -2.179688 2.59375 -1.734375 2.6875 C -1.296875 2.78125 -0.816406 2.828125 -0.296875 2.828125 C 0.910156 2.828125 1.773438 2.457031 2.296875 1.71875 C 2.816406 0.988281 3.078125 -0.253906 3.078125 -2.015625 L 3.078125 -27.125 L 10.453125 -27.125 L 10.453125 -2.65625 C 10.453125 1.019531 9.644531 3.800781 8.03125 5.6875 C 6.425781 7.570312 4.015625 8.515625 0.796875 8.515625 Z M 0.796875 8.515625" transform="translate(228.881 201.75)"/></g></g></g><g fill="#7ED957"><g><g><path d="M 2.9375 0 L 2.9375 -27.125 L 10.296875 -27.125 L 10.296875 0 Z M 2.9375 0" transform="translate(242.257 201.75)"/></g></g></g><g fill="#7ED957"><g><g><path d="M 14.90625 0 L 7.578125 0 L 7.578125 -21.140625 L 0.953125 -21.140625 L 0.953125 -27.125 L 21.5 -27.125 L 21.5 -21.140625 L 14.90625 -21.140625 Z M 14.90625 0" transform="translate(255.483 201.75)"/></g></g></g></svg>