<svg xmlns="http://www.w3.org/2000/svg" width="375" viewBox="0 0 375 375" height="375" version="1.0"><defs><clipPath id="a"><path d="M 253 238 L 300 238 L 300 311.8125 L 253 311.8125 Z M 253 238"/></clipPath><clipPath id="b"><path d="M 252.578125 236.8125 L 300.578125 236.8125 L 300.578125 311.8125 L 252.578125 311.8125 Z M 252.578125 236.8125"/></clipPath></defs><path fill="#FFF" d="M-37.5 -37.5H412.5V412.5H-37.5z"/><path fill="#FFF" d="M-37.5 -37.5H412.5V412.5H-37.5z"/><path fill="#FFF" d="M-37.5 -37.5H412.5V412.5H-37.5z"/><path stroke-linecap="round" transform="matrix(2.858 2.43305 -2.43085 2.85542 69.813 38.93)" fill="none" d="M 0.499734 -0.000333394 L 47.857703 0.000400738" stroke="#000"/><path stroke-linecap="round" transform="matrix(2.88187 2.3923 -2.39522 2.88538 15.044 76.436)" fill="none" d="M 0.499974 0.000231287 L 43.1533 -0.0000126949" stroke="#000"/><path stroke-linecap="round" transform="matrix(2.87517 2.41856 -2.41397 2.86971 15.053 106.345)" fill="none" d="M 0.500336 -0.000243121 L 42.219743 0.00022882" stroke="#000"/><path stroke-linecap="round" transform="matrix(2.87517 2.41856 -2.41397 2.86971 36.26 53.348)" fill="none" d="M 0.500472 0.0000823428 L 42.219879 0.000554284" stroke="#000"/><path fill="#FF1616" d="M 182.851562 143.488281 C 154.269531 143.488281 131.101562 166.65625 131.101562 195.238281 C 131.101562 223.816406 154.269531 246.988281 182.851562 246.988281 C 211.433594 246.988281 234.601562 223.816406 234.601562 195.238281 C 234.601562 166.65625 211.433594 143.488281 182.851562 143.488281"/><g clip-path="url(#a)"><path fill="#FFF" d="M 299.980469 280.195312 L 253.167969 238.085938 L 253.167969 296.261719 L 266.808594 282.585938 L 281.628906 311.238281 L 294.332031 311.238281 L 278.101562 280.199219 L 299.980469 280.199219 Z M 299.980469 280.195312" fill-rule="evenodd"/></g><g clip-path="url(#b)"><path stroke-linecap="square" transform="matrix(.22698 0 0 .22631 252.599 236.813)" fill="none" d="M 208.749603 191.692142 L 2.506754 5.624833 L 2.506754 262.684242 L 62.603552 202.255518 L 127.897725 328.860685 L 183.864159 328.860685 L 112.35723 191.709402 L 208.749603 191.709402 Z M 208.749603 191.692142" stroke="#000" stroke-width="5" stroke-miterlimit="10"/></g></svg>